# xmcd
#
# Track frame offsets: 
#        150
#        24930
#        46885
#        61745
#        77514
#
# Disc length: 1364 seconds
#
# Revision: 0
# Processed by: cddbd v1.5.2PL0 Copyright (c) Steve Scherf et al.
# Submitted via: ExactAudioCopyFreeDBPlugin 1.0
#
DISCID=2b055205
DTITLE=Colonel Rhodes - This Is Public
DYEAR=1900
DGENRE=
TTITLE0=Setting Sun
TTITLE1=Normal Boy
TTITLE2=In The Movies
TTITLE3=Confess
TTITLE4=Saint Paul
EXTD=
EXTT0=
EXTT1=
EXTT2=
EXTT3=
EXTT4=
PLAYORDER=
